<svg width="1024" height="1024" viewBox="0 0 1024 1024" fill="none" xmlns="http://www.w3.org/2000/svg">
<path fill-rule="evenodd" clip-rule="evenodd" d="M606.204 88.4037C650.876 72.2338 682.263 76.8047 706.395 102.989C746.902 146.942 724.569 218.08 668.325 224.269C659.265 225.264 651.85 227.209 651.845 228.593C651.845 233.158 678.066 254.849 691.001 260.984C698.452 264.516 712.138 267.531 724.124 268.281C741.35 269.355 746.766 268.452 758.692 262.506C774.994 254.38 788.564 236.232 794.472 214.646C797.533 203.464 799.867 200.253 805.492 199.494C819.244 197.634 833.351 216.432 840.435 246.054C851.166 290.927 818.797 332.007 741.776 371.268C708.825 388.064 690.01 393.107 661.273 392.853C628.069 392.556 615.133 387.561 581.718 362.121C539.654 330.101 529.886 324.505 516.047 324.505C498.942 324.505 482.148 339.449 482.148 354.67C482.148 369.378 486.071 377.149 499.877 389.761C518.794 407.045 530.078 411.779 584.28 425.176C630.362 436.565 661.118 446.931 690.897 461.119C773.81 500.622 811.836 578.17 788.527 660.228C786.073 668.873 784.575 676.425 785.204 677.008C785.834 677.591 793.514 674.695 802.267 670.575C833.428 655.908 868.406 663.308 889.561 689.042C903.087 705.495 907.463 720.939 905.587 745.594C903.852 768.342 892.554 788.61 875.742 799.132C865.334 805.649 861.141 806.754 772.833 826.219C721.509 837.532 680.565 848.868 647.131 861.022C638.49 864.162 622.227 870.056 610.992 874.122C584.494 883.71 554.407 896.271 483.618 927.307C444.254 944.562 433.603 947.046 404.845 945.683C371.679 944.107 350.257 934.222 324.029 908.4C292.887 877.739 277.081 843.338 262.565 774.627C259.747 761.283 256.923 747.936 254.104 734.591C250.315 734.293 246.524 734 242.731 733.702C226.953 732.47 211.164 739.333 200.828 751.919C193.95 760.295 191.653 766.939 190.06 783.062C187.263 811.417 180.939 814.938 159.328 800.178C144.106 789.778 126.057 765.684 121.132 749.185C117.22 736.08 116.914 709.187 120.546 698.09C127.029 678.292 143.912 659.58 163.578 650.386C178.411 643.451 215.548 634.928 255.722 629.242C286.047 624.951 295.134 624.695 313.53 627.626C342.068 632.173 352.361 636.77 386.303 660.137C401.858 670.845 417.673 681.145 421.448 683.02C430.398 687.468 454.697 687.409 459.521 682.928C465.302 677.557 464.01 660.47 456.777 646.589C444.326 622.702 421.964 607.808 346.233 572.973C292.963 548.47 270.187 536.244 250.6 521.635C195.684 480.676 154.003 418.217 134.636 347.855C126.085 316.781 126.048 248.211 134.574 225.266C148.313 188.297 174.672 162.985 208.599 154.176C219.265 151.406 246.159 148.984 277.882 147.939C411.791 143.529 496.169 128.23 606.204 88.4037ZM232.315 172.771C204.517 172.809 170.45 200.238 159.067 231.748C147.04 265.048 151.103 326.936 168.136 369.982C186.758 417.038 206.672 447.505 240.301 480.385C269.111 508.556 293.675 523.443 362.317 554.332C425.525 582.775 448.749 596.407 464.213 614.141C480.296 632.578 485.94 644.73 487.659 664.598C489.702 688.239 483.6 699.464 464.428 707.342C440.306 717.253 411.998 708.877 373.533 680.452C362.72 672.46 345.616 662.34 335.519 657.965C319.495 651.018 313.571 650.054 288.881 650.372C273.326 650.573 254.396 652.297 246.816 654.208C242.225 655.364 237.631 656.524 233.036 657.683C237.263 661.743 241.487 665.805 245.711 669.868C268.083 691.379 273.833 705.869 290.253 782.081C302.122 837.175 318.091 869.973 345.447 895.457C366.527 915.097 385.633 922.852 412.938 922.852C431.281 922.852 435.728 921.733 446.696 914.355C468.432 899.729 478.949 880.273 478.987 854.6C479.078 797.415 408.453 766.506 382.835 812.517C372.786 830.567 380.388 857.875 398.536 868.923C409.054 875.324 418.872 873.478 426.773 863.613C432.806 856.083 432.939 854.845 428.552 847.559C425.938 843.22 420.663 839.246 416.826 838.732C403.191 836.908 400.575 819.982 413.349 816.217C421.057 813.943 439.063 819.407 445.441 825.951C448.137 828.718 452.054 836.912 454.138 844.153C457.494 855.802 457.184 858.879 451.474 870.867C443.096 888.457 432.324 894.915 411.348 894.915C398.747 894.915 391.93 893.071 382.034 886.988C363.016 875.299 355.036 859.211 354.945 832.37C354.854 804.633 363.541 788.493 385.275 776.021C398.753 768.286 404.84 767.129 459.125 761.983C523.103 755.924 552.076 751.465 598.422 740.537C649.368 728.527 661.964 725.181 690.341 716.121C735.634 701.662 740.183 698.871 750.669 679.135C758.774 663.881 759.974 658.42 759.971 636.813C759.968 614.227 758.934 610.019 748.448 589.842C739.73 573.068 731.661 563.062 715.264 548.694C681.818 519.392 647.309 503.805 568.067 482.215C459.858 452.73 436.071 443.608 409.485 421.408C387.195 402.795 380.199 389.062 380.199 363.908C380.199 348.666 381.899 340.511 386.889 331.801C411.417 288.998 477.852 275.068 533.877 300.983C544.313 305.811 565.505 319.738 580.966 331.938C596.427 344.136 615.02 357.351 622.282 361.306C652.25 377.615 686.991 371.823 704.219 347.647C711.389 337.583 713.269 331.293 714.193 314.258C714.573 307.258 714.957 300.261 715.337 293.265C709.762 291.572 704.187 289.878 698.615 288.182C689.417 285.389 674.345 278.453 665.118 272.765C650.081 263.495 643.337 257.2 624.385 234.764C622.54 232.581 620.693 230.394 618.848 228.208C606.278 230.082 593.708 231.955 581.138 233.826C486.4 247.935 425.371 266.328 323.449 311.493C277.593 331.813 258.963 336.491 238.106 332.922C202.947 326.906 180.463 299.281 180.463 262.102C180.463 237.742 186.138 225.536 203.544 212.448C219.587 200.391 243.541 198.566 258.855 208.233C280.237 221.735 288.059 247.942 276.762 268.233C270.675 279.163 262.451 283.944 249.102 284.297C231.881 284.75 229.185 271.275 244.885 263.23C264.097 253.382 256.263 225.267 234.31 225.266C213.211 225.266 197.774 251.767 205.291 275.076C210.589 291.494 225.626 306.275 240.927 310.102C273.807 318.324 306.165 287.872 306.165 248.702C306.165 207.971 271.88 172.722 232.315 172.771Z" fill="white"/>
</svg>
